# xmcd
#
# Track frame offsets: 
#        150
#        11107
#        20591
#        29965
#        40739
#        50813
#        61522
#        70703
#        81475
#        90569
#        102114
#        113629
#
# Disc length: 1654 seconds
#
# Revision: 0
# Processed by: cddbd v1.5.2PL0 Copyright (c) Steve Scherf et al.
# Submitted via: ExactAudioCopy v1.0b1
#
DISCID=9a06740c
DTITLE=Chet Atkins  - Teen Scene [Mono] (RCA LPM-2719) 1963  
DYEAR=1900
DGENRE=
TTITLE0=I Got A Woman
TTITLE1=Rumpus
TTITLE2=I Love How You Love Me
TTITLE3=Alley Cat
TTITLE4=Walk Right In
TTITLE5=Back Home Again In Indiana
TTITLE6=Teen Scene
TTITLE7=Sweetie Baby
TTITLE8=A Little Evil
TTITLE9=I Will
TTITLE10=Bye Bye Birdie
TTITLE11=Susie-Q
EXTD=
EXTT0=
EXTT1=
EXTT2=
EXTT3=
EXTT4=
EXTT5=
EXTT6=
EXTT7=
EXTT8=
EXTT9=
EXTT10=
EXTT11=
PLAYORDER=
